<?xml version="1.0" standalone="no"?>
<!DOCTYPE svg PUBLIC "-//W3C//DTD SVG 20010904//EN"
 "http://www.w3.org/TR/2001/REC-SVG-20010904/DTD/svg10.dtd">
<svg version="1.0" xmlns="http://www.w3.org/2000/svg"
 width="442.000000pt" height="740.000000pt" viewBox="0 0 442.000000 740.000000"
 preserveAspectRatio="xMidYMid meet">
<metadata>
Created by potrace 1.15, written by Peter Selinger 2001-2017
</metadata>
<g transform="translate(0.000000,740.000000) scale(0.100000,-0.100000)"
fill="#000000" stroke="none">
<path d="M1755 7346 c-160 -52 -297 -191 -337 -339 l-12 -48 -46 6 c-59 8
-180 -17 -235 -49 -97 -57 -134 -135 -116 -240 18 -102 98 -229 175 -278 19
-12 23 -18 11 -14 -93 24 -204 12 -289 -31 -134 -68 -246 -246 -246 -391 0
-30 -2 -33 -22 -26 -51 16 -191 7 -252 -16 -201 -77 -277 -326 -128 -413 94
-55 252 8 252 100 l0 33 53 -26 c28 -15 81 -45 116 -67 58 -37 67 -48 97 -112
43 -94 74 -214 74 -291 l0 -62 -140 -87 c-423 -263 -608 -456 -671 -703 -70
-276 73 -586 392 -847 61 -51 68 -60 71 -97 4 -50 37 -79 99 -87 63 -9 81 -39
67 -116 -20 -120 5 -295 72 -489 42 -125 40 -155 -12 -212 -51 -56 -102 -86
-191 -113 l-68 -21 -41 30 c-35 26 -50 30 -103 30 -34 0 -77 -5 -96 -12 -38
-13 -125 -93 -166 -151 -28 -41 -25 -61 7 -32 34 31 164 33 157 2 -1 -8 16
-13 53 -15 75 -4 113 4 143 32 20 19 40 24 108 29 72 5 132 20 213 53 18 7 18
3 11 -91 -4 -54 -20 -189 -35 -299 -23 -174 -31 -206 -53 -239 -66 -97 -157
-442 -189 -714 -10 -87 -15 -104 -31 -109 -36 -11 -96 -75 -102 -107 -4 -21 3
-60 19 -112 l25 -79 -35 -43 c-19 -23 -41 -58 -50 -78 -12 -31 -13 -39 0 -63
8 -15 28 -37 45 -50 22 -16 31 -31 31 -51 0 -22 10 -37 38 -59 144 -114 387
-165 679 -143 222 17 368 47 439 90 26 16 32 27 38 69 6 47 9 52 41 62 66 22
73 81 20 159 -19 28 -35 60 -35 71 0 11 13 44 30 73 16 30 30 66 30 82 0 29
-35 95 -51 95 -20 0 -6 226 27 425 13 77 25 116 55 170 53 98 91 220 138 441
22 105 48 218 57 250 l17 59 13 -55 c8 -30 30 -127 50 -215 20 -88 54 -209 75
-269 30 -85 36 -113 28 -129 -8 -14 -7 -30 4 -61 9 -24 17 -93 21 -166 3 -81
14 -163 30 -234 25 -107 25 -110 7 -130 -46 -52 -55 -127 -21 -186 56 -98 55
-92 26 -153 -56 -118 -26 -187 83 -195 l59 -4 6 -41 c4 -23 14 -50 23 -59 45
-49 277 -84 493 -74 231 10 400 46 551 118 118 55 128 78 84 193 l-24 65 29 0
c41 0 60 24 60 76 0 41 -5 51 -52 100 -56 59 -61 81 -34 146 18 42 21 100 6
128 -12 23 -63 53 -128 74 l-51 17 -25 77 c-64 195 -111 433 -120 607 -5 97
-27 213 -100 536 -51 220 -67 332 -73 504 l-6 150 40 80 c51 101 105 246 133
355 12 47 37 109 56 140 60 98 61 106 18 212 -20 51 -50 120 -66 152 -16 32
-45 113 -63 180 -18 67 -38 133 -43 147 l-10 26 161 6 c288 12 444 46 585 128
71 42 298 268 372 371 44 61 63 78 93 88 77 23 135 101 125 170 -4 24 4 37 44
77 45 44 48 51 48 98 0 132 -106 336 -254 493 -149 156 -396 276 -460 222 -23
-18 -55 -82 -77 -150 -11 -37 -23 -56 -35 -59 -37 -7 -72 -41 -94 -93 -18 -42
-154 -231 -277 -385 -18 -23 -18 -23 -118 -9 -92 14 -135 23 -135 31 0 2 28
50 62 107 81 137 132 246 159 343 30 110 24 276 -14 383 -52 147 -149 269
-259 327 -52 27 -58 33 -58 62 0 67 -48 136 -121 173 -21 11 -41 32 -49 50
-15 35 -72 88 -110 101 -22 8 -33 26 -59 93 -90 232 -236 408 -410 494 -72 36
-80 37 -190 39 -75 2 -130 -2 -156 -11z m36 -673 c47 -43 111 -102 144 -131
60 -53 60 -53 25 -45 -45 10 -357 10 -431 0 -31 -5 -65 -15 -75 -23 -17 -14
-16 -15 21 -9 22 4 150 10 285 14 225 6 247 5 272 -12 106 -70 231 -101 338
-85 89 14 112 15 117 3 2 -6 -12 -16 -30 -23 -35 -13 -79 -52 -59 -52 6 0 45
11 86 25 140 47 305 42 414 -14 56 -29 162 -146 204 -227 51 -97 69 -171 69
-284 0 -158 -43 -274 -181 -491 -40 -63 -79 -129 -87 -148 -32 -75 -35 -179
-9 -242 4 -10 0 -23 -10 -34 -24 -23 -114 -16 -175 15 -123 63 -339 246 -399
340 l-32 50 40 44 c53 58 73 97 79 161 7 69 -2 115 -32 159 l-24 36 73 0 c123
0 202 -41 259 -132 37 -59 47 -55 17 7 -26 54 -108 120 -173 140 -24 7 -79 16
-122 20 l-79 8 36 32 c86 74 222 122 310 111 57 -8 91 -21 136 -55 39 -28 53
-22 20 9 -94 88 -255 91 -415 6 -35 -19 -63 -32 -63 -30 0 3 14 40 30 83 78
202 199 312 343 313 85 0 137 -23 196 -88 27 -30 52 -54 55 -54 36 0 -75 117
-139 146 -60 29 -137 31 -215 8 -44 -13 -67 -29 -125 -88 -77 -77 -121 -152
-180 -304 -44 -116 -44 -128 1 -149 43 -21 64 -65 64 -136 0 -143 -77 -219
-329 -329 -75 -32 -166 -77 -203 -98 -36 -22 -80 -40 -96 -40 -34 0 -101 43
-157 99 l-39 41 31 0 c23 0 37 -8 56 -33 13 -18 40 -41 60 -51 34 -19 35 -19
72 4 61 38 184 138 262 213 68 66 73 69 102 59 33 -12 46 -5 30 15 -13 15
-129 18 -129 3 0 -5 8 -10 18 -10 24 -1 -26 -41 -100 -80 -96 -51 -193 -71
-378 -77 -133 -4 -181 -2 -250 12 -191 39 -355 112 -575 256 -231 151 -295
174 -352 125 -15 -13 -25 -28 -21 -32 5 -4 17 1 27 10 23 21 70 18 84 -5 7
-12 7 -26 -2 -48 -40 -95 -217 -96 -266 -2 -34 68 -11 153 67 237 49 54 71 55
125 9 23 -19 44 -35 47 -35 12 0 -12 36 -45 68 -33 32 -26 42 14 21 12 -6 41
-30 64 -52 24 -22 46 -38 50 -34 3 4 -18 32 -49 61 l-56 54 30 6 c83 17 190
-1 324 -54 95 -38 117 -58 149 -136 19 -47 25 -53 25 -31 0 15 -7 44 -15 64
-32 76 15 43 59 -41 14 -27 26 -63 26 -80 1 -26 2 -28 11 -13 13 22 3 71 -22
116 -18 31 -18 33 -2 26 77 -34 196 -74 233 -80 82 -13 133 -49 179 -125 16
-28 21 -31 21 -14 0 11 -13 41 -30 67 l-29 46 25 -9 c46 -18 67 -32 116 -78
27 -25 51 -43 53 -40 3 3 -23 32 -58 66 -68 65 -68 72 6 72 29 0 93 28 84 36
-3 3 -42 0 -88 -6 -54 -8 -110 -9 -157 -3 l-74 8 -3 130 c-1 96 -9 162 -29
255 -17 75 -28 161 -29 215 -2 86 0 95 33 159 61 122 173 216 310 263 106 37
116 34 211 -54z m-628 -314 l42 -10 0 -63 0 -64 -55 5 c-119 11 -234 -37 -279
-117 -13 -23 -20 -44 -17 -47 3 -4 7 -4 9 -2 40 57 66 82 109 103 43 22 66 26
133 26 49 0 88 -5 98 -12 21 -16 69 -242 65 -305 l-3 -43 -44 29 c-88 58 -181
61 -285 9 l-39 -20 -81 30 c-44 17 -91 33 -103 37 -20 5 -23 13 -23 56 0 105
68 244 148 302 117 85 221 113 325 86z m13 -502 c16 -9 45 -29 64 -46 l35 -30
-33 6 c-20 3 -50 -1 -78 -12 l-47 -18 -94 38 c-102 42 -105 49 -26 71 57 16
139 12 179 -9z m2555 -224 l38 -83 -22 -15 c-27 -19 -91 -19 -107 0 -21 26
-14 110 18 189 15 39 16 39 25 15 5 -13 27 -61 48 -106z m-45 -143 c19 0 49 7
66 16 l32 16 30 -38 c95 -120 216 -236 313 -300 55 -36 193 -104 212 -104 23
0 9 -19 -45 -60 -65 -49 -80 -49 -189 4 -163 78 -275 160 -361 265 -50 60
-122 186 -139 241 -7 23 -6 22 19 -7 22 -26 36 -33 62 -33z m-2832 -58 c80
-50 254 -131 341 -158 50 -16 92 -30 94 -31 3 -2 -17 -26 -45 -54 -98 -102
-266 -191 -329 -175 -35 9 -44 33 -35 91 13 86 -15 216 -70 324 -13 26 -16 40
-8 35 7 -4 30 -18 52 -32z m1333 -269 c-19 -49 -49 -117 -66 -152 l-32 -63
-52 49 c-29 26 -72 64 -96 84 l-44 36 26 17 c14 10 77 39 139 65 62 26 122 52
133 58 11 7 21 8 23 3 2 -4 -12 -48 -31 -97z m271 -839 c55 -36 69 -142 26
-193 -65 -77 -184 -8 -184 107 0 90 83 135 158 86z m-1054 -507 l29 -23 -35
-21 c-62 -36 -82 -113 -55 -204 l14 -45 -61 4 c-112 7 -196 -62 -196 -161 0
-43 -2 -48 -17 -42 -36 15 -113 17 -143 5 -40 -17 -77 -61 -92 -112 l-12 -40
-50 5 c-38 3 -55 11 -73 31 -31 36 -29 52 8 60 50 10 195 81 267 132 150 105
278 243 345 371 17 35 34 63 37 63 3 0 18 -11 34 -23z m77 -79 c7 -13 9 -41 5
-72 -7 -58 -62 -179 -79 -173 -18 6 -46 87 -46 135 -1 51 20 106 46 121 30 17
61 13 74 -11z m-113 -254 c12 -8 22 -20 22 -28 0 -7 -33 -44 -72 -83 -72 -69
-150 -119 -168 -108 -16 10 -32 86 -25 125 16 93 159 149 243 94z m-278 -196
c19 -13 35 -28 37 -34 5 -16 -191 -74 -253 -74 -23 0 10 70 48 103 43 36 119
38 168 5z m-324 -922 c-7 -42 -10 -45 -64 -69 -82 -36 -128 -47 -203 -47 -55
0 -69 -4 -85 -21 -38 -43 -135 -66 -147 -35 -7 17 -67 36 -116 36 l-34 0 23
25 c12 13 42 32 66 42 25 10 42 23 40 30 -7 17 65 26 112 14 21 -6 51 -20 65
-31 14 -11 33 -20 42 -20 59 0 244 80 281 122 23 24 28 11 20 -46z m2458
-1366 c76 -11 139 -41 168 -80 18 -25 18 -27 -1 -90 -32 -102 -29 -124 28
-181 52 -52 69 -92 50 -115 -13 -16 -59 -19 -59 -4 0 13 -133 13 -223 -1 -118
-18 -425 -86 -700 -155 -159 -39 -268 -62 -283 -58 -30 8 -64 49 -64 78 0 11
14 50 31 86 l30 65 -40 77 c-47 89 -50 121 -18 169 42 62 256 154 452 193 175
35 447 42 629 16z m-1984 -144 c109 -25 202 -57 274 -93 123 -62 138 -95 87
-193 -46 -88 -46 -90 -1 -156 22 -32 40 -69 40 -81 0 -29 -46 -61 -63 -44 -8
8 -7 11 6 11 30 0 18 18 -25 39 -102 49 -477 94 -783 95 -212 0 -223 -1 -309
-27 -103 -32 -139 -50 -88 -44 36 4 43 -15 17 -49 -15 -19 -16 -18 -40 9 -35
40 -32 73 15 132 47 59 51 96 20 175 -24 61 -25 83 -4 115 32 49 127 86 309
121 94 18 454 12 545 -10z m2140 -376 l20 -40 -39 0 c-67 0 -113 -52 -147
-169 -3 -9 -15 -2 -40 23 -46 47 -87 68 -138 68 -78 2 -127 -40 -162 -139
l-18 -52 -23 38 c-24 41 -82 85 -126 95 -69 16 -167 -45 -182 -114 -4 -16 -10
-32 -15 -35 -4 -3 -43 4 -86 15 -92 23 -117 45 -112 99 l3 35 130 33 c362 91
604 141 810 168 55 7 101 13 102 14 2 0 12 -17 23 -39z m-2151 -105 c182 -24
295 -45 309 -60 4 -4 7 -39 7 -78 l0 -72 -44 -22 -44 -22 -28 43 c-56 89 -171
125 -244 75 -18 -13 -44 -40 -58 -61 l-24 -38 -27 40 c-51 78 -150 121 -228
99 -43 -11 -133 -87 -144 -121 -5 -17 -9 -14 -26 23 -28 64 -64 107 -108 129
-46 24 -75 25 -112 6 -31 -16 -33 -13 -17 32 11 32 10 32 174 56 79 12 430 -5
614 -29z m2183 18 c27 -31 30 -58 9 -85 -19 -24 -109 -70 -162 -83 l-27 -7 10
54 c16 89 58 137 119 138 22 0 42 -7 51 -17z m-287 -85 c34 -23 59 -54 69 -84
6 -19 0 -23 -60 -38 -111 -28 -254 -45 -254 -31 0 23 29 96 49 124 45 62 130
75 196 29z m-2553 -33 c39 -26 82 -91 98 -145 9 -31 9 -31 -23 -25 -47 9 -219
97 -231 118 -9 15 -5 23 22 48 41 37 84 38 134 4z m2178 -17 c43 -22 90 -76
90 -104 0 -11 -29 -14 -137 -14 -76 0 -144 4 -151 9 -11 7 -10 16 6 48 24 46
40 61 79 73 45 14 66 11 113 -12z m-1775 -26 c62 -30 105 -86 105 -137 0 -23
-4 -25 -42 -27 -99 -3 -298 10 -317 21 -31 19 66 144 125 160 36 10 89 3 129
-17z m361 -18 c37 -18 84 -67 84 -88 0 -14 -113 -38 -237 -52 -72 -8 -74 -4
-44 61 39 86 116 117 197 79z"/>
<path d="M1922 6068 c2 -6 -6 -22 -19 -36 -47 -51 -53 -144 -12 -196 16 -20
29 -26 60 -26 68 0 98 55 86 158 -4 37 -12 53 -41 79 -34 32 -82 45 -74 21z
m54 -36 c11 -7 44 -65 44 -77 0 -3 -8 -5 -18 -5 -31 0 -57 -37 -57 -81 0 -24
-4 -39 -12 -39 -23 0 -43 44 -43 95 0 80 44 135 86 107z"/>
<path d="M1422 6012 c-24 -51 -28 -101 -11 -151 12 -35 35 -51 74 -51 39 0 62
16 74 51 16 47 14 77 -10 126 -20 41 -61 74 -91 73 -7 -1 -23 -22 -36 -48z"/>
</g>
</svg>
