<?xml version="1.0" standalone="no"?>
<!DOCTYPE svg PUBLIC "-//W3C//DTD SVG 20010904//EN"
 "http://www.w3.org/TR/2001/REC-SVG-20010904/DTD/svg10.dtd">
<svg version="1.0" xmlns="http://www.w3.org/2000/svg"
 width="225.000000pt" height="225.000000pt" viewBox="0 0 225.000000 225.000000"
 preserveAspectRatio="xMidYMid meet">
<metadata>
Created by potrace 1.15, written by Peter Selinger 2001-2017
</metadata>
<g transform="translate(0.000000,225.000000) scale(0.100000,-0.100000)"
fill="#000000" stroke="none">
<path d="M0 1850 c0 -260 4 -400 10 -400 6 0 10 16 10 35 0 19 11 55 25 80 14
25 22 45 18 45 -4 0 -2 5 5 12 7 7 12 25 12 40 0 18 5 28 14 28 8 0 21 12 29
28 27 51 42 77 62 107 37 56 46 70 51 88 4 9 16 17 29 17 14 0 25 7 28 20 3
11 16 24 29 29 12 5 36 25 52 44 17 20 39 38 50 41 12 3 34 17 50 31 16 14 48
30 70 36 39 10 52 16 127 55 16 9 36 13 43 11 8 -3 31 1 52 8 22 8 74 14 117
15 62 0 77 3 77 15 0 13 -60 15 -480 15 l-480 0 0 -400z"/>
<path d="M973 2237 c2 -6 14 -15 28 -19 19 -6 17 -7 -8 -3 -18 2 -33 1 -33 -4
0 -14 40 -20 67 -10 47 18 47 8 0 -13 -41 -18 -50 -19 -58 -7 -7 12 -9 12 -9
0 0 -8 -12 -30 -27 -49 -16 -20 -32 -43 -38 -53 -5 -9 -38 -37 -71 -62 -90
-66 -111 -98 -128 -195 -15 -88 -9 -141 18 -171 9 -10 16 -25 16 -34 0 -9 4
-17 9 -17 5 0 12 -7 15 -16 4 -12 2 -15 -9 -10 -8 3 -15 1 -15 -4 0 -6 4 -10
9 -10 9 0 22 -29 27 -60 1 -8 10 -53 19 -99 14 -69 14 -85 3 -92 -10 -7 -9 -9
4 -9 11 0 18 -12 23 -42 15 -101 27 -145 46 -168 23 -28 23 -30 -6 70 -8 30
-18 82 -21 115 -2 32 -9 62 -15 66 -19 11 -22 89 -9 234 7 77 16 174 19 215 3
45 13 86 23 102 44 67 177 91 274 49 84 -37 109 -71 113 -159 1 -7 5 -11 10
-8 4 3 8 -17 7 -44 -2 -45 0 -50 19 -47 11 1 26 6 33 11 19 12 25 1 24 -43 -2
-34 1 -40 20 -43 13 -2 24 -11 26 -23 3 -15 1 -17 -8 -9 -16 16 -128 -6 -163
-32 -32 -23 -42 -60 -27 -100 10 -26 13 -27 21 -11 6 9 7 22 4 27 -3 6 -1 10
6 10 7 0 21 8 32 17 17 16 19 16 28 1 7 -13 15 -15 42 -7 17 5 33 9 34 9 0 0
0 -8 -1 -17 -2 -10 -14 -21 -27 -24 -21 -6 -20 -7 8 -8 23 -1 37 5 45 19 14
23 38 26 56 8 18 -18 14 -81 -8 -137 -11 -28 -24 -78 -29 -112 -11 -63 -54
-151 -72 -146 -6 1 -13 -9 -15 -23 -3 -13 -9 -29 -14 -34 -6 -6 -10 -18 -10
-29 0 -10 -4 -16 -9 -12 -6 3 -14 -2 -19 -11 -5 -9 -23 -17 -41 -19 -17 -1
-34 -5 -38 -9 -11 -10 -41 -7 -45 6 -3 7 -14 1 -29 -15 -21 -23 -27 -25 -44
-14 -12 7 -36 21 -55 32 -18 11 -47 34 -63 50 -27 28 -28 28 -16 5 7 -14 47
-60 90 -102 61 -61 85 -78 115 -83 70 -12 74 -15 74 -46 0 -16 3 -29 8 -29 4
0 24 -5 46 -9 34 -8 39 -7 43 10 3 12 12 19 22 17 13 -3 16 -17 16 -71 0 -65
0 -66 17 -44 33 43 58 132 61 216 1 44 3 81 4 81 7 0 44 -140 53 -200 6 -41
20 -110 31 -153 19 -76 40 -261 55 -479 l7 -108 343 0 344 0 0 1125 0 1125
-641 0 c-484 -1 -639 -4 -636 -13z m467 -78 c0 -4 21 -15 48 -24 97 -35 129
-54 146 -90 10 -19 23 -35 31 -35 8 0 15 -5 15 -10 0 -15 62 -69 80 -70 24 -1
80 -58 80 -81 0 -11 14 -32 30 -46 17 -13 28 -28 25 -33 -3 -4 2 -13 10 -20 8
-7 15 -29 15 -49 1 -30 8 -41 40 -66 33 -25 39 -36 40 -67 0 -20 4 -38 10 -40
11 -3 21 -332 13 -420 -5 -53 -8 -58 -29 -58 -23 0 -24 -3 -24 -80 0 -79 0
-80 -25 -80 -16 0 -25 -6 -25 -15 0 -11 -11 -15 -40 -15 -38 0 -40 2 -40 30 0
28 -2 30 -40 30 -29 0 -40 -4 -40 -15 0 -8 -4 -15 -10 -15 -5 0 -10 18 -10 40
0 24 -5 40 -12 40 -6 0 -20 7 -30 17 -17 15 -18 15 -18 0 0 -10 -4 -17 -10
-17 -5 0 -10 18 -10 40 0 28 -4 40 -14 40 -11 0 -16 14 -18 47 -2 36 -8 50
-23 58 -12 5 -38 24 -58 40 -28 24 -37 39 -39 67 -2 21 -7 33 -11 29 -5 -5 -4
-25 1 -45 11 -38 5 -50 -17 -36 -10 6 -12 18 -6 46 5 22 7 45 6 51 -1 9 7 11
28 7 27 -6 32 -3 47 29 10 20 21 34 25 32 11 -7 1 181 -12 242 -9 38 -9 63 0
97 23 93 10 194 -36 268 -12 20 -20 43 -17 51 3 8 -3 20 -12 28 -16 13 -16 12
-4 -11 8 -16 -2 -10 -28 19 -22 24 -39 49 -38 55 2 6 1 8 -1 4 -8 -14 -21 -8
-26 12 -3 11 -11 20 -19 20 -10 0 -10 -2 2 -10 8 -5 12 -11 10 -14 -3 -2 -16
3 -29 13 l-24 18 47 0 c25 0 46 -3 46 -8z"/>
<path d="M1270 1166 c-36 -6 -71 -15 -79 -20 -31 -20 -109 -17 -156 4 -53 24
-69 21 -29 -4 16 -11 54 -19 102 -22 43 -3 88 -7 101 -10 22 -5 23 -6 6 -24
-13 -15 -31 -20 -67 -20 -49 0 -68 -15 -54 -42 29 -56 31 -58 44 -37 7 11 17
17 22 14 10 -6 69 52 118 115 13 17 34 33 48 36 21 5 36 26 17 23 -5 -1 -37
-6 -73 -13z"/>
<path d="M804 962 c-7 -4 -29 -30 -50 -58 -53 -70 -97 -105 -179 -147 -125
-63 -284 -127 -302 -121 -13 4 -14 3 -6 -3 9 -6 -12 -19 -65 -41 -77 -31 -118
-40 -108 -23 3 4 -8 34 -24 66 -17 32 -30 67 -30 77 0 11 -7 18 -20 18 -20 0
-20 -7 -20 -365 l0 -365 521 0 c464 0 520 2 515 15 -9 25 -141 437 -190 597
-58 190 -63 227 -37 301 19 55 18 65 -5 49z"/>
</g>
</svg>
