<?xml version="1.0" standalone="no"?>
<!DOCTYPE svg PUBLIC "-//W3C//DTD SVG 20010904//EN"
 "http://www.w3.org/TR/2001/REC-SVG-20010904/DTD/svg10.dtd">
<svg version="1.0" xmlns="http://www.w3.org/2000/svg"
 width="512.000000pt" height="512.000000pt" viewBox="0 0 512.000000 512.000000"
 preserveAspectRatio="xMidYMid meet">
<metadata>
Created by potrace 1.15, written by Peter Selinger 2001-2017
</metadata>
<g transform="translate(0.000000,512.000000) scale(0.100000,-0.100000)"
fill="#000000" stroke="none">
<path d="M203 4958 c-174 -172 -196 -198 -191 -231 3 -19 32 5 192 163 103
102 192 193 197 203 8 14 5 17 -17 17 -21 0 -60 -33 -181 -152z"/>
<path d="M303 4858 c-140 -139 -264 -265 -275 -281 -10 -15 -18 -37 -16 -50 3
-18 49 23 292 263 158 157 292 293 297 303 8 14 5 17 -17 17 -22 0 -75 -47
-281 -252z"/>
<path d="M402 4758 c-194 -194 -362 -365 -373 -381 -11 -15 -19 -37 -17 -50 4
-18 67 40 392 363 213 212 392 393 397 403 8 14 5 17 -18 17 -22 0 -89 -62
-381 -352z"/>
<path d="M502 4658 c-249 -249 -462 -465 -473 -481 -11 -15 -19 -37 -17 -50 4
-18 84 57 492 463 268 267 492 493 497 503 8 14 5 17 -18 17 -22 0 -104 -76
-481 -452z"/>
<path d="M602 4558 c-304 -304 -562 -565 -573 -581 -11 -15 -19 -37 -17 -50 4
-18 101 75 592 563 323 322 592 593 597 603 8 14 5 17 -18 17 -23 0 -118 -91
-581 -552z"/>
<path d="M702 4458 c-359 -359 -662 -665 -673 -681 -11 -15 -19 -37 -17 -50 4
-18 118 92 692 663 378 377 692 693 697 703 8 14 5 17 -18 17 -23 0 -133 -106
-681 -652z"/>
<path d="M1180 4735 c-210 -210 -383 -375 -393 -375 -23 0 -67 -44 -67 -67 0
-10 -157 -175 -355 -373 -291 -292 -355 -361 -355 -383 0 -15 3 -27 7 -27 4 0
164 156 355 347 l348 348 0 -65 0 -64 -355 -356 c-291 -292 -355 -361 -355
-383 0 -15 3 -27 7 -27 4 0 164 156 355 347 l348 348 0 -65 0 -64 -355 -356
c-291 -292 -355 -361 -355 -383 0 -15 3 -27 7 -27 4 0 164 156 355 347 l348
348 0 -65 0 -64 -355 -356 c-291 -292 -355 -361 -355 -383 0 -15 3 -27 7 -27
4 0 164 156 355 347 l348 348 0 -65 0 -64 -355 -356 c-291 -292 -355 -361
-355 -383 0 -15 3 -27 7 -27 4 0 164 156 355 347 l348 348 0 -65 0 -64 -355
-356 c-291 -292 -355 -361 -355 -383 0 -15 3 -27 7 -27 4 0 87 80 185 177
l178 177 0 -64 0 -64 -185 -187 c-146 -147 -185 -192 -185 -213 0 -14 3 -26 7
-26 4 0 87 80 185 177 l178 177 0 -64 0 -64 -185 -187 c-146 -147 -185 -192
-185 -213 0 -14 3 -26 7 -26 4 0 87 80 185 177 l178 177 0 -64 0 -64 -185
-187 c-146 -147 -185 -192 -185 -213 0 -14 3 -26 7 -26 4 0 87 80 185 177
l178 177 0 -64 0 -64 -185 -187 c-146 -147 -185 -192 -185 -213 0 -14 3 -26 7
-26 4 0 87 80 185 177 l178 177 0 -64 0 -64 -185 -187 c-146 -147 -185 -192
-185 -213 0 -14 3 -26 7 -26 4 0 87 80 185 177 l178 177 0 -64 0 -64 -185
-187 c-146 -147 -185 -192 -185 -213 0 -14 3 -26 7 -26 4 0 87 80 185 177
l178 177 0 -64 0 -64 -185 -187 c-146 -147 -185 -192 -185 -213 0 -14 3 -26 7
-26 4 0 87 80 185 177 l178 177 0 -64 0 -64 -185 -187 c-146 -147 -185 -192
-185 -213 0 -14 3 -26 7 -26 4 0 87 80 185 177 l178 177 0 -64 0 -64 -185
-187 c-146 -147 -185 -192 -185 -213 0 -14 3 -26 7 -26 4 0 87 80 185 177
l178 177 0 -64 0 -64 -185 -187 c-146 -147 -185 -192 -185 -213 0 -14 3 -26 7
-26 4 0 87 80 185 177 l178 177 0 -64 0 -64 -185 -187 c-146 -147 -185 -192
-185 -213 0 -14 3 -26 7 -26 4 0 87 80 185 177 l178 177 0 -64 0 -64 -185
-187 c-146 -147 -185 -192 -185 -213 0 -14 3 -26 7 -26 4 0 87 80 185 177 148
148 178 173 178 153 0 -14 6 -37 14 -51 13 -26 12 -29 -151 -190 -90 -90 -169
-172 -174 -182 -8 -14 -5 -17 17 -17 21 0 62 35 198 170 l172 170 64 0 64 0
-162 -163 c-89 -90 -162 -166 -162 -170 0 -4 12 -7 26 -7 21 0 64 37 198 170
l172 170 64 0 64 0 -162 -163 c-89 -90 -162 -166 -162 -170 0 -4 12 -7 26 -7
21 0 64 37 198 170 l172 170 64 0 64 0 -162 -163 c-89 -90 -162 -166 -162
-170 0 -4 12 -7 26 -7 21 0 64 37 198 170 l172 170 64 0 64 0 -162 -163 c-89
-90 -162 -166 -162 -170 0 -4 12 -7 26 -7 21 0 64 37 198 170 l172 170 64 0
64 0 -162 -163 c-89 -90 -162 -166 -162 -170 0 -4 12 -7 26 -7 21 0 64 37 198
170 l172 170 64 0 64 0 -162 -163 c-89 -90 -162 -166 -162 -170 0 -4 12 -7 26
-7 21 0 64 37 198 170 l172 170 64 0 64 0 -162 -163 c-89 -90 -162 -166 -162
-170 0 -4 12 -7 26 -7 21 0 64 37 198 170 l172 170 64 0 64 0 -162 -163 c-89
-90 -162 -166 -162 -170 0 -4 12 -7 26 -7 21 0 64 37 198 170 l172 170 64 0
64 0 -162 -163 c-89 -90 -162 -166 -162 -170 0 -4 12 -7 26 -7 21 0 64 37 198
170 l172 170 64 0 64 0 -162 -163 c-89 -90 -162 -166 -162 -170 0 -4 12 -7 26
-7 21 0 64 37 198 170 l172 170 64 0 64 0 -162 -163 c-89 -90 -162 -166 -162
-170 0 -4 12 -7 26 -7 21 0 64 37 198 170 l172 170 64 0 64 0 -162 -163 c-89
-90 -162 -166 -162 -170 0 -4 12 -7 26 -7 21 0 64 37 198 170 l172 170 64 0
64 0 -162 -163 c-89 -90 -162 -166 -162 -170 0 -4 12 -7 26 -7 21 0 64 37 198
170 l172 170 64 0 64 0 -162 -163 c-89 -90 -162 -166 -162 -170 0 -4 12 -7 26
-7 21 0 64 37 198 170 l172 170 64 0 64 0 -162 -163 c-89 -90 -162 -166 -162
-170 0 -4 12 -7 26 -7 21 0 64 37 198 170 l172 170 64 0 64 0 -162 -163 c-89
-90 -162 -166 -162 -170 0 -4 12 -7 26 -7 21 0 64 37 198 170 l172 170 64 0
64 0 -162 -163 c-89 -90 -162 -166 -162 -170 0 -4 12 -7 26 -7 21 0 64 37 198
170 l172 170 64 0 64 0 -162 -163 c-89 -90 -162 -166 -162 -170 0 -4 12 -7 26
-7 21 0 64 37 198 170 l172 170 64 0 64 0 -162 -163 c-89 -90 -162 -166 -162
-170 0 -4 12 -7 26 -7 21 0 64 37 198 170 l172 170 64 0 64 0 -162 -163 c-89
-90 -162 -166 -162 -170 0 -4 12 -7 26 -7 21 0 64 37 198 170 l172 170 64 0
64 0 -162 -163 c-89 -90 -162 -166 -162 -170 0 -4 12 -7 26 -7 21 0 64 36 198
169 143 141 177 170 208 175 42 8 68 37 68 75 0 19 44 70 180 207 142 143 180
187 180 208 0 14 -3 26 -7 26 -4 0 -85 -77 -180 -172 l-173 -172 0 64 0 64
180 182 c142 143 180 187 180 208 0 14 -3 26 -7 26 -4 0 -85 -77 -180 -172
l-173 -172 0 64 0 64 180 182 c142 143 180 187 180 208 0 14 -3 26 -7 26 -4 0
-85 -77 -180 -172 l-173 -172 0 64 0 64 180 182 c142 143 180 187 180 208 0
14 -3 26 -7 26 -4 0 -85 -77 -180 -172 l-173 -172 0 64 0 64 180 182 c142 143
180 187 180 208 0 14 -3 26 -7 26 -4 0 -85 -77 -180 -172 l-173 -172 0 64 0
64 180 182 c142 143 180 187 180 208 0 14 -3 26 -7 26 -4 0 -85 -77 -180 -172
l-173 -172 0 64 0 64 180 182 c142 143 180 187 180 208 0 14 -3 26 -7 26 -4 0
-85 -77 -180 -172 l-173 -172 0 64 0 64 180 182 c142 143 180 187 180 208 0
14 -3 26 -7 26 -4 0 -85 -77 -180 -172 l-173 -172 0 64 0 64 180 182 c142 143
180 187 180 208 0 14 -3 26 -7 26 -4 0 -85 -77 -180 -172 l-173 -172 0 64 0
64 180 182 c142 143 180 187 180 208 0 14 -3 26 -7 26 -4 0 -85 -77 -180 -172
l-173 -172 0 64 0 64 180 182 c142 143 180 187 180 208 0 14 -3 26 -7 26 -4 0
-85 -77 -180 -172 l-173 -172 0 64 0 64 180 182 c142 143 180 187 180 208 0
14 -3 26 -7 26 -4 0 -85 -77 -180 -172 l-173 -172 0 64 0 64 180 182 c142 143
180 187 180 208 0 14 -3 26 -7 26 -4 0 -87 -79 -184 -177 l-178 -176 -34 29
-34 29 218 221 c175 176 219 226 219 247 0 15 -3 27 -7 27 -4 0 -111 -104
-238 -230 l-231 -230 -34 29 -35 29 273 274 c220 222 272 280 272 301 0 15 -3
27 -7 27 -4 0 -136 -128 -293 -284 l-285 -285 -34 30 -33 31 326 327 c266 267
326 332 326 354 0 15 -3 27 -7 27 -4 0 -159 -152 -345 -337 l-338 -338 0 65 0
64 345 346 c282 283 345 351 345 373 0 15 -3 27 -7 27 -4 0 -159 -152 -345
-337 l-338 -338 0 65 0 64 345 346 c282 283 345 351 345 373 0 15 -3 27 -7 27
-4 0 -159 -152 -345 -337 l-338 -338 0 65 0 64 345 346 c282 283 345 351 345
373 0 15 -3 27 -7 27 -4 0 -159 -152 -345 -337 l-338 -338 0 65 0 64 345 346
c282 283 345 351 345 373 0 15 -3 27 -7 27 -4 0 -159 -152 -345 -337 l-338
-338 0 65 0 64 345 346 c282 283 345 351 345 373 0 15 -3 27 -7 27 -4 0 -159
-152 -345 -337 l-338 -338 0 65 0 64 345 346 c282 283 345 351 345 373 0 15
-3 27 -7 27 -4 0 -167 -159 -363 -353 l-355 -353 -59 4 -59 4 367 367 c201
202 366 370 366 374 0 4 -12 7 -27 7 -22 0 -94 -67 -403 -375 l-376 -375 -64
0 -65 0 368 368 c202 202 367 371 367 375 0 4 -12 7 -27 7 -22 0 -94 -67 -403
-375 l-376 -375 -64 0 -65 0 368 368 c202 202 367 371 367 375 0 4 -12 7 -27
7 -22 0 -94 -67 -403 -375 l-376 -375 -64 0 -65 0 368 368 c202 202 367 371
367 375 0 4 -12 7 -27 7 -22 0 -94 -67 -403 -375 l-376 -375 -64 0 -65 0 368
368 c202 202 367 371 367 375 0 4 -12 7 -27 7 -22 0 -94 -67 -403 -375 l-376
-375 -64 0 -65 0 368 368 c202 202 367 371 367 375 0 4 -12 7 -27 7 -22 0 -94
-67 -403 -375 l-376 -375 -64 0 -65 0 368 368 c202 202 367 371 367 375 0 4
-12 7 -27 7 -22 0 -93 -66 -392 -364 l-366 -365 -34 31 -34 30 327 327 c179
180 326 330 326 334 0 4 -12 7 -27 7 -22 0 -85 -58 -343 -315 -173 -173 -320
-315 -326 -315 -6 0 -22 13 -37 28 l-27 28 271 269 c149 149 275 278 280 288
8 14 5 17 -17 17 -22 0 -78 -50 -300 -271 l-272 -271 -37 27 -36 28 235 237
c130 130 236 239 236 243 0 4 -12 7 -27 7 -21 0 -72 -45 -255 -227 l-228 -227
-32 32 -32 32 187 188 c103 104 187 191 187 195 0 4 -12 7 -26 7 -21 0 -66
-39 -213 -185 -127 -125 -194 -185 -209 -185 -22 0 -41 -15 -311 -245 -84 -71
-158 -132 -164 -134 -7 -2 153 163 356 366 202 203 367 372 367 376 0 4 -12 7
-27 7 -22 0 -94 -67 -403 -375 l-376 -375 -64 0 -65 0 368 368 c202 202 367
371 367 375 0 4 -12 7 -27 7 -22 0 -94 -67 -403 -375 l-376 -375 -64 0 -65 0
368 368 c202 202 367 371 367 375 0 4 -12 7 -27 7 -22 0 -94 -67 -403 -375
l-376 -375 -64 0 -65 0 368 368 c202 202 367 371 367 375 0 4 -12 7 -27 7 -22
0 -94 -67 -403 -375 l-376 -375 -64 0 -65 0 368 368 c202 202 367 371 367 375
0 4 -12 7 -27 7 -22 0 -94 -67 -403 -375 l-376 -375 -64 0 -65 0 368 368 c202
202 367 371 367 375 0 4 -12 7 -27 7 -22 0 -94 -67 -403 -375 l-376 -375 -64
0 -65 0 368 368 c202 202 367 371 367 375 0 4 -12 7 -27 7 -22 0 -94 -67 -403
-375z m1482 -262 l28 -27 -42 -43 c-41 -42 -44 -43 -107 -43 l-65 0 69 70 c38
39 74 70 79 70 6 0 23 -12 38 -27z m-1597 -453 l-180 -180 -3 62 -3 62 118
118 118 118 65 0 65 0 -180 -180z m100 -100 l-280 -280 -3 62 -3 62 218 218
218 218 65 0 65 0 -280 -280z m100 -100 l-380 -380 -3 62 -3 62 318 318 318
318 65 0 65 0 -380 -380z m100 -100 l-480 -480 -3 62 -3 62 418 418 418 418
65 0 65 0 -480 -480z m100 -100 l-580 -580 -3 62 -3 62 518 518 518 518 65 0
65 0 -580 -580z m455 255 c-179 -179 -332 -325 -341 -325 -26 0 -69 -39 -69
-63 0 -16 -94 -116 -315 -337 l-315 -315 0 65 0 65 617 617 618 618 65 0 65 0
-325 -325z m200 0 l-325 -325 -65 0 -65 0 325 325 325 325 65 0 65 0 -325
-325z m200 0 l-325 -325 -65 0 -65 0 325 325 325 325 65 0 65 0 -325 -325z
m200 0 l-325 -325 -65 0 -65 0 325 325 325 325 65 0 65 0 -325 -325z m200 0
l-325 -325 -65 0 -65 0 325 325 325 325 65 0 65 0 -325 -325z m160 -40 l-365
-365 -14 28 c-7 15 -21 31 -29 36 -11 6 60 83 314 337 l329 329 65 0 65 0
-365 -365z m-5 -205 l-570 -570 -65 0 -65 0 570 570 570 570 65 0 65 0 -570
-570z m200 0 l-570 -570 -65 0 -65 0 570 570 570 570 65 0 65 0 -570 -570z
m200 0 l-570 -570 -65 0 -65 0 570 570 570 570 65 0 65 0 -570 -570z m200 0
l-570 -570 -65 0 -65 0 570 570 570 570 65 0 65 0 -570 -570z m200 0 l-570
-570 -65 0 -65 0 570 570 570 570 65 0 65 0 -570 -570z m113 -87 l-483 -483
-65 0 -65 0 545 545 545 545 3 -62 3 -62 -483 -483z m100 -100 l-383 -383 -65
0 -65 0 445 445 445 445 3 -62 3 -62 -383 -383z m60 -140 c-252 -252 -324
-319 -326 -303 -2 11 -14 28 -27 38 l-24 17 347 348 347 347 3 -62 3 -62 -323
-323z m-115 -315 l-438 -438 -65 0 -65 0 500 500 500 500 3 -62 3 -62 -438
-438z m-2250 395 l37 -8 -370 -370 -370 -370 0 65 0 65 322 322 c221 221 326
319 333 313 6 -5 28 -13 48 -17z m-169 -414 l-412 -412 -33 23 c-19 13 -36 25
-39 27 -2 2 169 177 380 388 l385 385 65 0 65 0 -411 -411z m451 251 l-160
-160 -65 0 -65 0 160 160 160 160 65 0 65 0 -160 -160z m200 0 l-160 -160 -65
0 -65 0 160 160 160 160 65 0 65 0 -160 -160z m200 0 l-160 -160 -65 0 -65 0
160 160 160 160 65 0 65 0 -160 -160z m1668 -332 l-338 -338 -65 0 -65 0 400
400 400 400 3 -62 3 -62 -338 -338z m-230 -430 c-487 -487 -581 -577 -662
-630 -89 -60 -94 -61 -107 -43 -13 18 6 40 278 312 259 259 297 293 324 293
48 0 84 34 84 78 0 35 16 53 323 360 l322 322 3 -62 3 -62 -568 -568z m-2175
459 c15 -17 3 -30 -193 -227 -229 -229 -208 -216 -275 -171 -12 9 29 55 215
241 213 213 230 228 233 203 2 -16 11 -36 20 -46z m2475 -360 c-249 -250 -278
-276 -413 -366 -80 -54 -165 -110 -190 -125 -28 -18 123 140 410 428 l455 456
3 -62 3 -62 -268 -269z m-2512 89 c-135 -135 -250 -242 -255 -239 -6 4 -24 15
-40 26 l-28 20 218 218 219 219 65 0 65 0 -244 -244z m274 74 c-127 -127 -176
-170 -194 -170 -33 0 -61 -27 -61 -59 0 -20 -19 -46 -73 -99 l-72 -72 -39 26
-38 26 258 259 259 259 65 0 65 0 -170 -170z m200 0 l-170 -170 -65 0 -65 0
170 170 170 170 65 0 65 0 -170 -170z m200 0 l-170 -170 -65 0 -65 0 170 170
170 170 65 0 65 0 -170 -170z m200 0 l-170 -170 -65 0 -65 0 170 170 170 170
65 0 65 0 -170 -170z m200 0 l-170 -170 -65 0 -65 0 170 170 170 170 65 0 65
0 -170 -170z m200 0 l-170 -170 -65 0 -65 0 170 170 170 170 65 0 65 0 -170
-170z m200 0 l-170 -170 -65 0 -65 0 170 170 170 170 65 0 65 0 -170 -170z
m200 0 l-170 -170 -65 0 -65 0 170 170 170 170 65 0 65 0 -170 -170z m200 0
l-170 -170 -65 0 -65 0 170 170 170 170 65 0 65 0 -170 -170z m905 -25 l0 -55
-147 -98 c-82 -54 -155 -102 -163 -106 -8 -5 57 64 145 153 88 88 161 161 162
161 2 0 3 -25 3 -55z m330 -92 l0 -48 -657 -657 c-362 -362 -662 -658 -666
-658 -4 0 -23 10 -42 23 l-34 23 662 661 c606 604 707 702 730 703 4 0 7 -21
7 -47z m-3942 -190 l-103 -104 -3 62 -3 62 67 68 67 67 39 -26 39 -25 -103
-104z m216 28 c3 -4 -69 -81 -160 -172 l-164 -164 0 65 0 65 126 126 127 127
33 -20 c19 -11 36 -23 38 -27z m3128 -684 l-600 -600 -36 22 c-20 13 -36 26
-36 29 0 4 285 292 633 640 l632 632 3 -62 3 -62 -599 -599z m-672 -272 l-975
-975 -65 0 -65 0 325 320 c179 176 337 332 352 348 15 15 249 251 520 526
l493 498 190 128 c105 71 192 129 195 129 3 1 -434 -438 -970 -974z m-2340
879 c6 -6 -72 -91 -215 -234 l-225 -225 0 65 0 65 187 187 187 187 29 -17 c16
-9 32 -22 37 -28z m604 28 l38 -4 -72 -73 -73 -73 -39 25 -39 26 58 59 c39 40
63 56 73 52 8 -4 32 -9 54 -12z m127 -116 l-114 -114 -39 26 -39 25 88 89 88
88 65 0 65 0 -114 -114z m164 -36 c-82 -82 -153 -150 -158 -150 -4 0 -23 10
-42 23 l-34 22 127 128 127 127 65 0 65 0 -150 -150z m160 -40 c-104 -104
-193 -190 -198 -190 -4 0 -23 10 -42 23 l-34 22 167 168 167 167 65 0 65 0
-190 -190z m158 -41 l-231 -232 -36 22 c-20 13 -36 26 -36 29 0 4 91 98 202
209 l203 203 65 0 65 0 -232 -231z m161 -40 l-272 -272 -36 22 c-20 13 -36 26
-36 29 0 4 109 116 242 249 l243 243 65 0 65 0 -271 -271z m159 -40 l-313
-310 -32 22 c-18 12 -35 24 -38 26 -2 2 124 132 280 288 l285 285 65 0 65 0
-312 -311z m298 97 l-214 -214 -59 -6 c-33 -4 -67 -10 -76 -13 -9 -3 84 96
208 221 l225 226 65 0 65 0 -214 -214z m177 -23 c-231 -231 -237 -236 -265
-226 -15 6 -37 14 -47 18 -17 5 17 43 199 225 l220 220 65 0 65 0 -237 -237z
m163 -37 c-151 -151 -280 -272 -285 -269 -6 4 -24 16 -39 27 l-28 20 248 248
248 248 65 0 65 0 -274 -274z m-2041 164 c0 -3 -128 -133 -285 -290 l-285
-285 0 65 0 65 247 247 246 247 39 -22 c21 -12 38 -24 38 -27z m2942 -663
l-540 -540 -33 23 c-19 13 -36 25 -39 27 -2 2 254 262 570 579 l575 574 3 -62
3 -62 -539 -539z m-2857 611 c19 -13 35 -25 35 -28 0 -3 -155 -160 -345 -350
l-345 -345 0 65 0 65 307 307 c170 170 309 308 311 308 1 0 18 -10 37 -22z
m120 -80 c19 -13 35 -25 35 -28 0 -3 -182 -187 -405 -410 l-405 -405 0 65 0
65 367 367 c203 203 369 368 371 368 1 0 18 -10 37 -22z m121 -79 c19 -11 34
-24 34 -27 0 -4 -209 -216 -465 -472 l-465 -465 0 65 0 65 427 427 c236 236
430 428 432 428 2 0 19 -9 37 -21z m2677 -591 l-478 -478 -39 26 -39 26 514
514 514 514 3 -62 3 -62 -478 -478z m-748 252 c-186 -186 -340 -338 -341 -337
0 1 1 32 4 68 l4 66 147 147 c129 129 169 161 331 271 102 68 187 124 190 124
3 1 -148 -152 -335 -339z m-1809 259 c19 -11 34 -24 34 -27 0 -4 -236 -243
-525 -532 l-525 -525 0 65 0 65 487 487 c269 269 490 488 492 488 2 0 19 -9
37 -21z m129 -82 l34 -23 -590 -590 -589 -589 0 65 0 65 547 547 c302 302 552
548 556 548 4 0 23 -10 42 -23z m2283 -774 l-623 -623 -65 0 -65 0 175 175
c112 112 182 175 195 175 32 0 63 27 70 63 5 25 102 127 468 495 l462 462 3
-62 3 -62 -623 -623z m-2163 694 l34 -23 -650 -650 -649 -649 0 65 0 65 607
607 c335 335 612 608 616 608 4 0 23 -10 42 -23z m650 -207 c-101 -101 -173
-166 -178 -161 -5 5 -6 34 -3 64 7 53 10 57 115 161 l108 106 64 0 64 0 -170
-170z m-1102 -502 l-608 -608 -65 0 -65 0 634 634 634 634 39 -26 39 -26 -608
-608z m1376 631 l34 -21 -209 -209 c-115 -115 -212 -209 -216 -209 -4 0 -16
17 -27 38 l-20 37 192 193 c106 105 196 192 202 192 5 0 25 -9 44 -21z m-1216
-671 l-568 -568 -65 0 -65 0 594 594 594 594 39 -26 39 -26 -568 -568z m1327
542 c0 -8 -87 -102 -194 -209 l-193 -193 -31 16 c-17 9 -34 21 -38 27 -4 7 79
97 202 220 l209 210 22 -28 c13 -15 23 -35 23 -43z m1228 -587 l-523 -523 -65
0 -65 0 585 585 585 585 3 -62 3 -62 -523 -523z m-1949 555 c-5 -18 -9 -51 -9
-73 0 -38 -6 -47 -117 -157 -114 -112 -168 -152 -418 -305 -23 -14 87 103 255
271 162 163 296 296 297 296 1 0 -3 -15 -8 -32z m749 -105 c-5 -54 -5 -55
-119 -169 l-114 -114 -65 0 -65 0 174 174 c96 96 179 172 184 169 5 -3 7 -30
5 -60z m1300 -550 l-423 -423 -65 0 -65 0 485 485 485 485 3 -62 3 -62 -423
-423z m100 -100 l-323 -323 -65 0 -65 0 385 385 385 385 3 -62 3 -62 -323
-323z m-2066 394 l26 -34 -341 -341 -342 -342 -65 0 -65 0 375 375 c206 206
377 375 380 375 3 0 17 -15 32 -33z m941 -107 c7 0 -125 -137 -293 -305 l-305
-305 -65 0 -65 0 329 329 330 330 29 -25 c16 -13 34 -24 40 -24z m-839 4 l29
-26 -294 -294 -294 -294 -65 0 -65 0 320 320 c176 176 324 320 330 320 5 0 23
-12 39 -26z m931 -66 l37 -21 -264 -264 -263 -263 -65 0 -65 0 285 285 c157
157 288 285 292 285 4 0 23 -10 43 -22z m1133 -325 l-223 -223 -65 0 -65 0
285 285 285 285 3 -62 3 -62 -223 -223z m-1937 326 c19 -7 36 -14 39 -16 2 -2
-115 -123 -260 -268 l-265 -265 -65 0 -65 0 280 280 c154 154 285 280 291 280
6 0 26 -5 45 -11z m-16 -279 l-270 -270 -65 0 -65 0 259 259 258 259 72 9 c39
6 73 11 76 12 3 0 -117 -120 -265 -269z m-805 -5 l-265 -265 -65 0 -65 0 175
175 c96 96 179 175 185 175 5 0 73 40 150 90 77 49 142 90 145 90 3 0 -114
-119 -260 -265z m1768 191 c10 -7 -41 -63 -210 -233 l-223 -223 -65 0 -65 0
249 249 249 249 26 -16 c14 -9 32 -20 39 -26z m-1878 -84 c7 -3 -67 -84 -171
-188 l-184 -184 -65 0 -65 0 230 230 230 230 6 -42 c3 -23 12 -44 19 -46z
m2000 9 c12 -9 -20 -46 -170 -196 l-185 -185 -65 0 -65 0 209 209 c230 230
209 217 276 172z m968 -258 l-123 -123 -65 0 -65 0 185 185 185 185 3 -62 3
-62 -123 -123z"/>
<path d="M4796 350 c-174 -173 -322 -323 -327 -332 -8 -15 -5 -18 17 -18 23 0
80 52 312 282 156 156 293 295 303 311 11 15 19 37 17 50 -4 18 -54 -28 -322
-293z"/>
<path d="M4896 250 c-119 -118 -222 -223 -227 -232 -8 -15 -5 -18 17 -18 21 0
65 37 211 183 205 202 226 227 221 260 -3 19 -37 -11 -222 -193z"/>
<path d="M4996 150 c-136 -133 -149 -150 -111 -150 18 0 49 23 111 82 102 98
127 130 122 161 -3 19 -19 7 -122 -93z"/>
</g>
</svg>
